<?xml version="1.0" encoding="utf-8"?>
<!-- Generator: Adobe Illustrator 19.0.0, SVG Export Plug-In . SVG Version: 6.00 Build 0)  -->
<svg version="1.1"
	 id="svg4280" xmlns:sodipodi="http://sodipodi.sourceforge.net/DTD/sodipodi-0.dtd" xmlns:inkscape="http://www.inkscape.org/namespaces/inkscape" xmlns:rdf="http://www.w3.org/1999/02/22-rdf-syntax-ns#" xmlns:svg="http://www.w3.org/2000/svg" xmlns:cc="http://creativecommons.org/ns#" xmlns:dc="http://purl.org/dc/elements/1.1/" inkscape:version="0.91 r13725" sodipodi:docname="GSM logoFinal.svg"
	 xmlns="http://www.w3.org/2000/svg" xmlns:xlink="http://www.w3.org/1999/xlink" x="0px" y="0px" viewBox="744.4 290.2 2060 215"
	 style="enable-background:new 744.4 290.2 2060 215;" xml:space="preserve">
<style type="text/css">
	.st0{fill:#F9A825;}
	.st1{fill:#689F38;}
	.st2{fill:#1976D2;}
	.st3{fill:#673AB7;}
	.st4{fill:#C2185B;}
</style>
<sodipodi:namedview  inkscape:pageshadow="2" inkscape:showpageshadow="false" inkscape:window-height="801" inkscape:window-width="1536" inkscape:pageopacity="0.0" inkscape:document-units="px" inkscape:current-layer="layer1" inkscape:window-x="-8" inkscape:window-y="-8" inkscape:window-maximized="1" pagecolor="#ffffff" showgrid="false" inkscape:cx="1697.521" inkscape:cy="288.67157" inkscape:zoom="0.98994949" borderopacity="1.0" bordercolor="#666666" id="base" units="px">
	</sodipodi:namedview>
<path id="rect4147" inkscape:connector-curvature="0" sodipodi:nodetypes="ssssssccccccccccccccsss" class="st0" d="M771.2,301.6
	c-14.8,0-26.8,11.9-26.8,26.7v150.1c0,14.8,12,26.7,26.8,26.7h204.1c14.8,0,26.8-11.9,26.8-26.7v-75.2c0,0-21.7,0-37.1,0.1
	c-6.6,0-100.4,0.1-100.4,0.1v32H969v37.4H864.7v0.2h-88.9l0-73.9l0-66.7h193.8v30.4h32.6v-34.6c0-14.8-12-26.7-26.8-26.7
	L771.2,301.6z"/>
<path id="rect4208" inkscape:connector-curvature="0" class="st0" d="M1063.7,301.1c-15,0-27.1,12.1-27.1,27.1v55
	c0.2,2,0.8,5.2,2.1,7.8c2.6,5.1,4.6,8.2,9.5,11.2c4.1,2.5,11.4,4,11.4,4l172.1,14.9v52.3l-161.5,0.1v-30.4l-33.6-0.1v34.5
	c0,15,12.1,27.1,27.1,27.1h171.4c15,0,27.1-12.1,27.1-27.1v-68.9c-1.1-4.6-3.1-8.2-7.2-12.3c-5.6-5.7-12.6-6.4-12.6-6.4L1068,374.5
	l0.1-41.9h161.6v30.1l32.5,0v-34.5c0-15-12.1-27.1-27.1-27.1L1063.7,301.1L1063.7,301.1z"/>
<path id="path4224" inkscape:connector-curvature="0" sodipodi:nodetypes="ccsccsccccccccccc" class="st0" d="M1297.7,505V322.9
	c0,0,1.1-7.7,7.1-13.8c5.9-6.1,13.3-7.6,13.3-7.6l287.5-0.4c0,0,9.5,1.1,16.2,8.4c6.7,7.4,6.9,13.3,6.9,13.3l0.1,182h-32.3V332.8
	h-117l0.1,172.3l-32.3,0V332.8h-118.5l0.1,172.3H1297.7z"/>
<rect id="rect4228" x="1362.9" y="368.5" class="st1" width="44.7" height="43.7"/>
<rect id="rect4228-5" x="1362.7" y="460.5" class="st2" width="44.7" height="43.7"/>
<rect id="rect4228-5-7" x="1513.3" y="460.4" class="st3" width="44.7" height="43.7"/>
<rect id="rect4228-5-7-5" x="1646.9" y="290.2" class="st4" width="44.7" height="43.7"/>
<polyline id="rect4906_1_" class="st4" points="2440.8,418.3 2396,418.3 2396,374.7 2440.8,374.7 "/>
<path id="path4875" inkscape:connector-curvature="0" sodipodi:nodetypes="cssssscccccccccccsscc" class="st2" d="M2025.6,300.2
	c-14.8,0-26.8,11.9-26.8,26.7V477c0,14.8,12,26.7,26.8,26.7h204.1c14.8,0,26.8-11.9,26.8-26.7v-35.4h-32.6v29.8h-104.8v0.2h-88.9
	l0-73.9l0-66.7h193.8v111.2h32.6V326.9c0-14.8-12-26.7-26.8-26.7H2025.6L2025.6,300.2z"/>
<path id="rect4147-5" inkscape:connector-curvature="0" class="st1" d="M1735.3,300.2c-14.8,0-26.8,11.9-26.8,26.7V477
	c0,14.8,12,26.7,26.8,26.7h204.1c14.8,0,26.8-11.9,26.8-26.7v-35.4h-33.1v29.8h-104.3v0.2h-88.9l0-73.9l0-66.7h193.8v30.4h32.6
	v-34.6c0-14.8-12-26.7-26.8-26.7H1735.3L1735.3,300.2z"/>
<path id="path4890" inkscape:connector-curvature="0" sodipodi:nodetypes="cssssscccccccccccsscc" class="st3" d="M2315.3,300.2
	c-14.8,0-26.8,11.9-26.8,26.7V477c0,14.8,12,26.7,26.8,26.7h204.1c14.8,0,26.8-11.9,26.8-26.7v-35.4h-32.6v29.8h-104.8v0.2h-88.9
	l0-73.9l0-66.7h193.8v111.2h32.6V326.9c0-14.8-12-26.7-26.8-26.7H2315.3L2315.3,300.2z"/>
<path id="path4898" inkscape:connector-curvature="0" sodipodi:nodetypes="csccccccc" class="st4" d="M2579.9,481.2
	c0,0,0.3,6.9,8.3,15c6.6,6.7,17.3,8.1,17.3,8.1h198.9l0-33.1l-192.8,0.5V299.8h-31.9L2579.9,481.2z"/>
</svg>
